HIERARCHY
ROOT pelvis
{
	OFFSET 0.000000 0.000000 0.747927
	CHANNELS 6 Xposition Yposition Zposition Xrotation Yrotation Zrotation
	JOINT spine
	{
		OFFSET 0.000000 0.000000 0.000000
		CHANNELS 6 Xposition Yposition Zposition Xrotation Yrotation Zrotation
		JOINT spine.001
		{
			OFFSET 0.000000 -0.012703 0.242384
			CHANNELS 3 Xrotation Yrotation Zrotation
			JOINT neck
			{
				OFFSET 0.000000 0.029580 0.240908
				CHANNELS 6 Xposition Yposition Zposition Xrotation Yrotation Zrotation
				JOINT face
				{
					OFFSET 0.000000 0.003583 0.205291
					CHANNELS 6 Xposition Yposition Zposition Xrotation Yrotation Zrotation
					End Site
					{
						OFFSET 0.000000 -0.039307 -0.007370
					}
				}
			}
			JOINT shoulder.L
			{
				OFFSET 0.000000 0.029580 0.240908
				CHANNELS 6 Xposition Yposition Zposition Yrotation Xrotation Zrotation
				JOINT upper_arm.L
				{
					OFFSET 0.166616 0.000000 0.000000
					CHANNELS 6 Xposition Yposition Zposition Xrotation Yrotation Zrotation
					JOINT forearm.L
					{
						OFFSET 0.270299 0.000113 0.000934
						CHANNELS 6 Xposition Yposition Zposition Xrotation Yrotation Zrotation
						End Site
						{
							OFFSET 0.221017 -0.003755 -0.001285
						}
					}
				}
			}
			JOINT shoulder.R
			{
				OFFSET 0.000000 0.029580 0.240908
				CHANNELS 6 Xposition Yposition Zposition Yrotation Xrotation Zrotation
				JOINT upper_arm.R
				{
					OFFSET -0.166616 0.000000 0.000000
					CHANNELS 6 Xposition Yposition Zposition Xrotation Yrotation Zrotation
					JOINT forearm.R
					{
						OFFSET -0.270059 0.000113 0.000934
						CHANNELS 6 Xposition Yposition Zposition Xrotation Yrotation Zrotation
						End Site
						{
							OFFSET -0.227122 -0.003861 -0.001286
						}
					}
				}
			}
		}
	}
	JOINT pelvis.L
	{
		OFFSET 0.000000 0.000000 0.000000
		CHANNELS 6 Xposition Yposition Zposition Yrotation Xrotation Zrotation
		End Site
		{
			OFFSET 0.100005 0.000000 0.000000
		}
	}
	JOINT pelvis.R
	{
		OFFSET 0.000000 0.000000 0.000000
		CHANNELS 6 Xposition Yposition Zposition Yrotation Xrotation Zrotation
		End Site
		{
			OFFSET -0.100005 0.000000 0.000000
		}
	}
	JOINT thigh.L
	{
		OFFSET 0.100005 0.000000 0.000000
		CHANNELS 6 Xposition Yposition Zposition Xrotation Yrotation Zrotation
		JOINT shin.L
		{
			OFFSET 0.019004 0.000000 -0.362610
			CHANNELS 6 Xposition Yposition Zposition Xrotation Yrotation Zrotation
			JOINT foot.L
			{
				OFFSET 0.016952 0.000000 -0.323469
				CHANNELS 3 Xrotation Yrotation Zrotation
				End Site
				{
					OFFSET 0.015017 -0.153116 -0.064296
				}
			}
			JOINT heel.02.L
			{
				OFFSET 0.016952 0.000000 -0.323469
				CHANNELS 3 Xrotation Yrotation Zrotation
				End Site
				{
					OFFSET 0.080024 0.033584 -0.056795
				}
			}
		}
	}
	JOINT thigh.R
	{
		OFFSET -0.100005 0.000000 0.000000
		CHANNELS 6 Xposition Yposition Zposition Xrotation Yrotation Zrotation
		JOINT shin.R
		{
			OFFSET -0.018104 0.000000 -0.345446
			CHANNELS 6 Xposition Yposition Zposition Xrotation Yrotation Zrotation
			JOINT foot.R
			{
				OFFSET -0.017207 0.000000 -0.328329
				CHANNELS 3 Xrotation Yrotation Zrotation
				End Site
				{
					OFFSET -0.015899 -0.162110 -0.068073
				}
			}
			JOINT heel.02.R
			{
				OFFSET -0.017207 0.000000 -0.328329
				CHANNELS 3 Xrotation Yrotation Zrotation
				End Site
				{
					OFFSET -0.077238 0.033584 -0.069279
				}
			}
		}
	}
}
MOTION
Frames: 4
Frame Time: 0.041667
-0.016893 -0.018924 0.735377 -0.000000 0.000000 -9.154556 0.000000 0.000000 -0.000000 -11.345953 -1.082318 -0.165100 9.985645 0.449251 3.661612 -0.000000 0.029580 0.240908 10.802720 1.372912 9.705619 0.000000 0.003583 0.205291 0.212512 -0.000000 -0.000000 -0.000000 0.029580 0.240908 1.260219 0.001703 -0.154717 0.166616 0.000000 0.000000 23.614766 78.600068 -28.663866 0.270299 0.000113 0.000934 0.892344 6.347513 -15.658046 0.000000 0.029580 0.240908 1.310026 0.001841 -0.160817 -0.166616 -0.000000 0.000000 21.336630 -79.518941 25.532263 -0.270059 0.000113 0.000934 1.380298 -12.458769 11.216776 0.000000 0.000000 -0.000000 -2.488248 -0.000000 0.000012 0.000000 0.000000 -0.000000 -2.488283 -0.000000 0.000001 0.099911 -0.000000 0.004342 9.725902 3.360776 0.225272 0.019004 0.000000 -0.362610 -4.067768 -4.243410 -0.363330 -6.367295 -4.276821 7.405650 -19.410096 48.397163 41.859887 -0.099911 0.000000 -0.004342 6.416040 -5.012489 -0.055606 -0.018104 0.000000 -0.345446 -1.944467 3.428338 0.159861 -8.190695 2.545474 -3.370872 -8.671269 -43.216451 -29.536029 
-0.016887 -0.018901 0.735409 -0.000000 0.000000 -9.146186 0.000000 0.000000 -0.000000 -11.343489 -1.077527 -0.164347 9.985668 0.448325 3.653799 -0.000000 0.029580 0.240908 10.787813 1.369625 9.706343 -0.000000 0.003583 0.205291 0.220838 0.000000 0.000001 -0.000000 0.029580 0.240908 1.267132 0.001722 -0.155586 0.166616 0.000000 -0.000000 23.597361 78.577290 -28.654068 0.270299 0.000113 0.000934 0.893368 6.364812 -15.625383 -0.000000 0.029580 0.240908 1.316980 0.001859 -0.161674 -0.166616 -0.000000 0.000000 21.413806 -79.543242 25.612977 -0.270059 0.000113 0.000934 1.374646 -12.408324 11.219119 0.000000 0.000000 0.000000 -2.490642 -0.000000 -0.000015 0.000000 0.000000 0.000000 -2.490608 -0.000000 -0.000001 0.099910 0.000000 0.004346 9.714770 3.365135 0.224644 0.019004 -0.000000 -0.362610 -4.049019 -4.251987 -0.361955 -6.380122 -4.278147 7.403540 -19.420239 48.405715 41.878694 -0.099910 0.000000 -0.004346 6.416732 -5.019536 -0.055216 -0.018104 0.000000 -0.345446 -1.953067 3.435444 0.160688 -8.180756 2.546856 -3.376329 -8.658741 -43.220378 -29.556295 
-0.016854 -0.018864 0.735410 -0.000000 0.000000 -9.123046 0.000000 0.000000 -0.000000 -11.338284 -1.073738 -0.163718 9.985845 0.445564 3.631428 -0.000000 0.029580 0.240908 10.772678 1.366631 9.707112 0.000000 0.003583 0.205291 0.219661 0.000000 -0.000000 0.000000 0.029580 0.240908 1.274731 0.001743 -0.156588 0.166616 -0.000000 0.000000 23.583479 78.556908 -28.647405 0.270299 0.000113 0.000934 0.894323 6.380655 -15.596095 0.000000 0.029580 0.240908 1.324578 0.001882 -0.162674 -0.166616 0.000000 -0.000000 21.468398 -79.569586 25.665909 -0.270059 0.000113 0.000934 1.369857 -12.355037 11.232939 0.000000 0.000000 0.000000 -2.488043 -0.000000 0.000005 0.000000 0.000000 0.000000 -2.488044 -0.000000 0.000000 0.099911 -0.000000 0.004341 9.697851 3.369564 0.223875 0.019004 0.000000 -0.362610 -4.026480 -4.261057 -0.360256 -6.387399 -4.271448 7.387329 -19.418769 48.407962 41.893891 -0.099911 0.000000 -0.004341 6.419372 -5.029842 -0.054659 -0.018104 -0.000000 -0.345446 -1.965641 3.450238 0.161978 -8.162958 2.552103 -3.391572 -8.650830 -43.235193 -29.590975 
-0.016800 -0.018817 0.735406 -0.000000 0.000000 -9.095672 0.000000 0.000000 0.000000 -11.330730 -1.070867 -0.163208 9.986126 0.442067 3.602882 0.000000 0.029580 0.240908 10.755986 1.362577 9.707815 -0.000000 0.003583 0.205291 0.218804 0.000000 0.000001 0.000000 0.029580 0.240908 1.283516 0.001765 -0.157523 0.166616 -0.000000 -0.000000 23.599393 78.535209 -28.676925 0.270299 0.000113 0.000934 0.893899 6.391978 -15.553574 0.000000 0.029580 0.240908 1.333364 0.001906 -0.163661 -0.166616 0.000000 -0.000000 21.511363 -79.593123 25.706433 -0.270059 0.000113 0.000934 1.366109 -12.307757 11.250185 0.000000 -0.000000 0.000000 -2.483496 0.000001 0.000030 0.000000 -0.000000 0.000000 -2.483464 -0.000000 0.000000 0.099911 -0.000000 0.004333 9.676755 3.375846 0.222853 0.019004 0.000000 -0.362610 -3.999536 -4.271325 -0.358199 -6.397858 -4.262435 7.365244 -19.415038 48.408033 41.903446 -0.099911 0.000000 -0.004333 6.415375 -5.041381 -0.053975 -0.018104 -0.000000 -0.345446 -1.968068 3.471504 0.162540 -8.146293 2.558678 -3.409111 -8.651881 -43.258839 -29.631819 
